HIERARCHY
ROOT CG
{
	OFFSET 0.000000 0.000000 27.772259
	CHANNELS 6 Xposition Yposition Zposition Xrotation Yrotation Zrotation
	JOINT Pelvis
	{
		OFFSET 0.000000 0.000000 0.000000
		CHANNELS 3 Xrotation Yrotation Zrotation
		JOINT Spine
		{
			OFFSET -0.000017 -10.490843 -0.495483
			CHANNELS 3 Xrotation Yrotation Zrotation
			JOINT Spine1
			{
				OFFSET -0.000010 -22.678980 0.018061
				CHANNELS 3 Xrotation Yrotation Zrotation
				JOINT Spine2
				{
					OFFSET -0.000010 -22.678967 0.018061
					CHANNELS 3 Xrotation Yrotation Zrotation
					JOINT Spine3
					{
						OFFSET -0.000010 -22.678982 0.018059
						CHANNELS 3 Xrotation Yrotation Zrotation
						JOINT Neck
						{
							OFFSET -0.000012 -22.678986 -1.289251
							CHANNELS 3 Xrotation Yrotation Zrotation
							JOINT Neck1
							{
								OFFSET -0.000007 -16.255905 0.012947
								CHANNELS 3 Xrotation Yrotation Zrotation
								JOINT Head
								{
									OFFSET -0.000005 -10.784607 -0.287502
									CHANNELS 3 Xrotation Yrotation Zrotation
									JOINT Jaw01
									{
										OFFSET 0.000031 7.782959 5.073944
										CHANNELS 3 Xrotation Yrotation Zrotation
										JOINT Jaw02
										{
											OFFSET 0.000004 -34.927139 -18.883980
											CHANNELS 3 Xrotation Yrotation Zrotation
											End Site
											{
												OFFSET -0.000170 8.372803 -38.812450
											}
										}
									}
									JOINT Nose
									{
										OFFSET -0.000002 -25.700912 7.222265
										CHANNELS 3 Xrotation Yrotation Zrotation
										End Site
										{
											OFFSET -0.000090 0.641281 -21.715439
										}
									}
									JOINT L_EyeSocket
									{
										OFFSET 7.352326 -19.832718 14.164183
										CHANNELS 3 Xrotation Yrotation Zrotation
										JOINT L_Eye
										{
											OFFSET -0.000868 -0.001053 0.016003
											CHANNELS 3 Xrotation Yrotation Zrotation
											End Site
											{
												OFFSET -0.001505 -0.001846 0.027969
											}
										}
										JOINT L_Eyelid_Top
										{
											OFFSET -0.001004 -0.002625 0.032516
											CHANNELS 3 Xrotation Yrotation Zrotation
											End Site
											{
												OFFSET -0.013218 0.005753 0.024086
											}
										}
										JOINT L_Eyelid_Bottom
										{
											OFFSET -0.001194 -0.002777 0.035381
											CHANNELS 3 Xrotation Yrotation Zrotation
											End Site
											{
												OFFSET -0.010032 0.008636 -0.024754
											}
										}
									}
									JOINT R_EyeSocket
									{
										OFFSET -7.352252 -19.832748 14.164206
										CHANNELS 3 Xrotation Yrotation Zrotation
										JOINT R_Eye
										{
											OFFSET 0.000875 -0.001068 0.015991
											CHANNELS 3 Xrotation Yrotation Zrotation
											End Site
											{
												OFFSET 0.001505 -0.001846 0.027962
											}
										}
										JOINT R_Eyelid_Top
										{
											OFFSET 0.001021 -0.002625 0.032516
											CHANNELS 3 Xrotation Yrotation Zrotation
											End Site
											{
												OFFSET 0.013214 0.005753 0.024078
											}
										}
										JOINT R_Eyelid_Bottom
										{
											OFFSET 0.001170 -0.002762 0.035366
											CHANNELS 3 Xrotation Yrotation Zrotation
											End Site
											{
												OFFSET 0.010029 0.008636 -0.024746
											}
										}
									}
								}
								JOINT Neck_Fat
								{
									OFFSET 0.000044 -9.595100 -17.491512
									CHANNELS 3 Xrotation Yrotation Zrotation
									End Site
									{
										OFFSET -0.000036 15.369423 -0.000007
									}
								}
							}
						}
						JOINT L_Clavicle
						{
							OFFSET 4.567107 -11.666092 -3.750029
							CHANNELS 3 Xrotation Yrotation Zrotation
							JOINT L_UpperArm
							{
								OFFSET 20.725666 -0.000053 -0.000032
								CHANNELS 3 Xrotation Yrotation Zrotation
								JOINT L_Forearm
								{
									OFFSET 5.265112 -0.585754 -20.155697
									CHANNELS 3 Xrotation Yrotation Zrotation
									JOINT L_Hand
									{
										OFFSET 2.653017 -10.877708 -16.383667
										CHANNELS 3 Xrotation Yrotation Zrotation
										JOINT L_Finger0
										{
											OFFSET -4.206146 -4.328911 -5.034346
											CHANNELS 3 Xrotation Yrotation Zrotation
											JOINT L_Finger01
											{
												OFFSET 0.084272 -1.788536 -4.181065
												CHANNELS 3 Xrotation Yrotation Zrotation
												End Site
												{
													OFFSET 3.261885 3.094673 -0.685818
												}
											}
										}
										JOINT L_Finger1
										{
											OFFSET -1.039112 -6.775742 -3.499998
											CHANNELS 3 Xrotation Yrotation Zrotation
											JOINT L_Finger11
											{
												OFFSET 1.320335 -3.040672 -6.425793
												CHANNELS 3 Xrotation Yrotation Zrotation
												End Site
												{
													OFFSET -1.244579 6.832077 -2.013330
												}
											}
										}
										JOINT L_Finger2
										{
											OFFSET 2.531296 -5.656487 -3.286415
											CHANNELS 3 Xrotation Yrotation Zrotation
											JOINT L_Finger21
											{
												OFFSET 1.991665 -2.402016 -5.957748
												CHANNELS 3 Xrotation Yrotation Zrotation
												End Site
												{
													OFFSET -2.793068 5.800873 -1.944178
												}
											}
										}
										JOINT L_Finger3
										{
											OFFSET 5.474075 -3.302338 -2.655975
											CHANNELS 3 Xrotation Yrotation Zrotation
											JOINT L_Finger31
											{
												OFFSET 2.026943 -1.267532 -5.961166
												CHANNELS 3 Xrotation Yrotation Zrotation
												End Site
												{
													OFFSET -4.375172 4.343658 -1.800320
												}
											}
										}
										JOINT L_Finger4
										{
											OFFSET 4.825745 1.085899 -2.321970
											CHANNELS 3 Xrotation Yrotation Zrotation
											JOINT L_Finger41
											{
												OFFSET 3.358261 -1.829651 -3.744434
												CHANNELS 3 Xrotation Yrotation Zrotation
												End Site
												{
													OFFSET -3.843296 2.955200 -2.267633
												}
											}
										}
									}
								}
							}
						}
						JOINT R_Clavicle
						{
							OFFSET -4.567111 -11.666092 -3.750036
							CHANNELS 3 Xrotation Yrotation Zrotation
							JOINT R_UpperArm
							{
								OFFSET -20.725670 -0.000031 0.000038
								CHANNELS 3 Xrotation Yrotation Zrotation
								JOINT R_Forearm
								{
									OFFSET -5.265285 -0.585762 -20.155655
									CHANNELS 3 Xrotation Yrotation Zrotation
									JOINT R_Hand
									{
										OFFSET -2.653147 -10.877739 -16.383663
										CHANNELS 3 Xrotation Yrotation Zrotation
										JOINT R_Finger0
										{
											OFFSET 4.206116 -4.328888 -5.034388
											CHANNELS 3 Xrotation Yrotation Zrotation
											JOINT R_Finger01
											{
												OFFSET -0.084324 -1.788544 -4.181051
												CHANNELS 3 Xrotation Yrotation Zrotation
												End Site
												{
													OFFSET -3.261890 3.094666 -0.685791
												}
											}
										}
										JOINT R_Finger1
										{
											OFFSET 1.039101 -6.775711 -3.499994
											CHANNELS 3 Xrotation Yrotation Zrotation
											JOINT R_Finger11
											{
												OFFSET -1.320374 -3.040672 -6.425779
												CHANNELS 3 Xrotation Yrotation Zrotation
												End Site
												{
													OFFSET 1.244556 6.832077 -2.013342
												}
											}
										}
										JOINT R_Finger2
										{
											OFFSET -2.531307 -5.656464 -3.286409
											CHANNELS 3 Xrotation Yrotation Zrotation
											JOINT R_Finger21
											{
												OFFSET -1.991707 -2.402016 -5.957708
												CHANNELS 3 Xrotation Yrotation Zrotation
												End Site
												{
													OFFSET 2.793037 5.800858 -1.944197
												}
											}
										}
										JOINT R_Finger3
										{
											OFFSET -5.474091 -3.302330 -2.655947
											CHANNELS 3 Xrotation Yrotation Zrotation
											JOINT R_Finger31
											{
												OFFSET -2.026993 -1.267532 -5.961157
												CHANNELS 3 Xrotation Yrotation Zrotation
												End Site
												{
													OFFSET 4.375156 4.343674 -1.800358
												}
											}
										}
										JOINT R_Finger4
										{
											OFFSET -4.825756 1.085922 -2.321926
											CHANNELS 3 Xrotation Yrotation Zrotation
											JOINT R_Finger41
											{
												OFFSET -3.358307 -1.829651 -3.744390
												CHANNELS 3 Xrotation Yrotation Zrotation
												End Site
												{
													OFFSET 3.843273 2.955208 -2.267666
												}
											}
										}
									}
								}
							}
						}
					}
				}
			}
		}
		JOINT Tail01
		{
			OFFSET -0.000010 10.922326 -0.017508
			CHANNELS 3 Xrotation Yrotation Zrotation
			JOINT Tail02
			{
				OFFSET -0.000022 21.986111 0.000013
				CHANNELS 3 Xrotation Yrotation Zrotation
				JOINT Tail03
				{
					OFFSET -0.000022 21.986118 0.000002
					CHANNELS 3 Xrotation Yrotation Zrotation
					JOINT Tail04
					{
						OFFSET -0.000022 21.986122 0.000004
						CHANNELS 3 Xrotation Yrotation Zrotation
						JOINT Tail05
						{
							OFFSET -0.000022 21.986099 0.000010
							CHANNELS 3 Xrotation Yrotation Zrotation
							JOINT Tail06
							{
								OFFSET -0.000022 21.986099 0.000006
								CHANNELS 3 Xrotation Yrotation Zrotation
								JOINT Tail07
								{
									OFFSET -0.000022 21.986099 0.000000
									CHANNELS 3 Xrotation Yrotation Zrotation
									JOINT Tail08
									{
										OFFSET -0.000022 21.984848 0.000050
										CHANNELS 3 Xrotation Yrotation Zrotation
										JOINT Tail09
										{
											OFFSET -0.000025 21.926025 -1.606211
											CHANNELS 3 Xrotation Yrotation Zrotation
											JOINT Tail10
											{
												OFFSET -0.000027 21.750092 -3.203882
												CHANNELS 3 Xrotation Yrotation Zrotation
												End Site
												{
													OFFSET -0.000036 4.767395 21.461668
												}
											}
										}
									}
								}
							}
						}
					}
				}
			}
		}
		JOINT L_Thigh
		{
			OFFSET 24.788780 0.000021 -0.000034
			CHANNELS 3 Xrotation Yrotation Zrotation
			JOINT L_Calf
			{
				OFFSET 4.720837 4.161326 -21.049969
				CHANNELS 3 Xrotation Yrotation Zrotation
				JOINT L_Foot
				{
					OFFSET 2.154160 21.114433 -11.949743
					CHANNELS 3 Xrotation Yrotation Zrotation
					JOINT L_Toe0
					{
						OFFSET 4.557564 9.251841 -8.735286
						CHANNELS 3 Xrotation Yrotation Zrotation
						End Site
						{
							OFFSET 4.555542 -12.646044 1.018752
						}
					}
					JOINT L_Toe1
					{
						OFFSET 2.346291 5.845602 -11.687160
						CHANNELS 3 Xrotation Yrotation Zrotation
						End Site
						{
							OFFSET 5.347954 -12.298279 1.365644
						}
					}
					JOINT L_Toe2
					{
						OFFSET -0.356020 3.902458 -12.541145
						CHANNELS 3 Xrotation Yrotation Zrotation
						End Site
						{
							OFFSET 3.916235 -12.806129 1.542549
						}
					}
					JOINT L_Toe3
					{
						OFFSET -4.603447 3.183935 -12.435249
						CHANNELS 3 Xrotation Yrotation Zrotation
						End Site
						{
							OFFSET 3.810858 -12.587427 2.957583
						}
					}
					JOINT L_Toe4
					{
						OFFSET -7.144358 6.231495 -10.072764
						CHANNELS 3 Xrotation Yrotation Zrotation
						End Site
						{
							OFFSET 3.810858 -12.587425 2.957585
						}
					}
				}
			}
		}
		JOINT R_Thigh
		{
			OFFSET -24.788780 -0.000024 0.000034
			CHANNELS 3 Xrotation Yrotation Zrotation
			JOINT R_Calf
			{
				OFFSET -4.720922 4.161324 -21.049952
				CHANNELS 3 Xrotation Yrotation Zrotation
				JOINT R_Foot
				{
					OFFSET -2.154238 21.114414 -11.949730
					CHANNELS 3 Xrotation Yrotation Zrotation
					JOINT R_Toe0
					{
						OFFSET -4.557598 9.251823 -8.735270
						CHANNELS 3 Xrotation Yrotation Zrotation
						End Site
						{
							OFFSET -4.555508 -12.646051 1.018756
						}
					}
					JOINT R_Toe1
					{
						OFFSET -2.346325 5.845589 -11.687157
						CHANNELS 3 Xrotation Yrotation Zrotation
						End Site
						{
							OFFSET -5.347919 -12.298286 1.365654
						}
					}
					JOINT R_Toe2
					{
						OFFSET 0.355980 3.902462 -12.541145
						CHANNELS 3 Xrotation Yrotation Zrotation
						End Site
						{
							OFFSET -3.916199 -12.806131 1.542559
						}
					}
					JOINT R_Toe3
					{
						OFFSET 4.603411 3.183941 -12.435266
						CHANNELS 3 Xrotation Yrotation Zrotation
						End Site
						{
							OFFSET -3.810825 -12.587429 2.957591
						}
					}
					JOINT R_Toe4
					{
						OFFSET 7.144323 6.231503 -10.072779
						CHANNELS 3 Xrotation Yrotation Zrotation
						End Site
						{
							OFFSET -3.810825 -12.587433 2.957584
						}
					}
				}
			}
		}
	}
}
MOTION
Frames: 4
Frame Time: 0.033333
0.000000 0.000000 52.000000 -0.000000 0.000000 0.000044 -8.842944 -0.000088 0.000007 10.961080 0.000007 0.000018 2.118162 -0.000001 0.000003 4.876472 -0.000002 0.000004 -2.163955 0.000002 -0.000003 -6.986518 0.000003 -0.000007 -13.013556 0.000008 -0.000015 14.417346 -0.000016 -0.000008 -11.537028 -0.000053 0.000048 -0.000007 0.000000 0.000000 0.000020 0.000000 -0.000000 -0.000005 0.000007 -0.000020 0.000065 -0.000040 0.000014 -0.000001 -0.000003 -0.000005 0.000002 -0.000003 -0.000001 0.000000 0.000000 -0.000009 0.000062 0.000040 -0.000021 -0.000000 -0.000004 -0.000001 -0.000001 0.000003 -0.000002 -0.000000 -0.000000 -0.000000 -0.000873 4.114585 11.904649 26.136805 -13.607875 -29.332442 -23.413036 4.857576 -5.359884 -64.573455 -13.412962 -14.628585 4.814251 45.237890 32.496811 0.108379 -0.103825 0.046720 31.239888 13.715136 -10.715220 -21.103492 -3.971326 -2.962972 30.256539 6.344422 -6.448664 -32.343288 -14.390353 -8.157529 20.872336 -11.244811 -8.185800 -18.722431 -18.085392 -5.094117 18.635500 -29.682657 -0.393827 0.555232 0.804620 0.101793 -0.000907 -4.114892 -11.904634 1.175020 14.107443 33.206232 -12.983183 -2.414572 3.207803 -53.408797 5.511617 0.402038 4.813892 -45.237828 -32.497121 0.108392 0.103822 -0.046708 31.239926 -13.715162 10.714983 -21.103483 3.971285 2.963133 30.256553 -6.344445 6.448435 -32.343299 14.390252 8.157743 20.872413 11.244835 8.185632 -18.722469 18.085342 5.094267 18.635544 29.682657 0.393689 0.555237 -0.804611 -0.101804 -12.821442 -0.000004 0.000031 -8.690510 -1.231629 3.950023 3.553608 -0.181040 4.130733 10.254869 -0.516810 -5.348513 8.081719 -0.227258 -5.341328 3.149382 -0.198539 -9.483994 2.260962 -0.385533 -9.446041 3.251357 -0.480233 7.201985 2.529275 0.390781 7.076520 2.504828 0.702950 7.052489 -27.408745 -10.892084 11.838890 -10.432604 -0.073223 -2.410159 -27.253643 -19.732227 -8.454197 -2.318585 -4.298917 -0.446780 8.087303 0.872416 0.413565 17.133856 6.636318 3.687453 20.253550 6.370521 -9.434378 -1.696116 7.323630 -8.103866 -11.861671 6.993989 -18.227412 -11.337994 0.058832 2.619241 -43.150547 17.417141 11.350157 -2.318621 4.298935 0.446771 8.087300 -0.872378 -0.413611 17.133830 -6.636218 -3.687516 20.253567 -6.370389 9.434275 -1.696101 -7.323602 8.103836 
0.157653 -0.000000 50.878075 -0.000001 0.248619 0.000051 -8.842944 -0.000088 0.000007 11.070943 0.000007 0.000018 2.228029 -0.000001 0.000003 4.479188 -0.000001 0.000005 -2.512155 0.000002 -0.000002 -6.294439 0.000002 -0.000008 -11.530810 0.000006 -0.000012 13.881484 -0.000016 -0.000013 -11.385014 -0.000057 0.000054 -0.000003 -0.000000 -0.000000 0.000020 -0.000000 -0.000000 -0.000004 0.000007 -0.000010 0.000062 -0.000046 0.000014 0.000005 0.000005 -0.000001 0.000008 0.000003 0.000009 0.000001 0.000000 -0.000009 0.000060 0.000047 -0.000014 0.000003 0.000001 0.000001 0.000004 -0.000007 -0.000001 -0.000001 -0.000000 -0.000000 -0.000856 4.115013 11.905712 29.555967 -15.826093 -27.615505 -29.875691 6.558616 -6.464919 -61.430605 -14.543730 -14.857051 4.815631 45.233860 32.484882 0.108362 -0.103809 0.046704 31.238939 13.715020 -10.715105 -21.103439 -3.971320 -2.962959 30.252533 6.343905 -6.446540 -32.339484 -14.389054 -8.156155 20.870442 -11.243968 -8.182043 -18.723005 -18.085875 -5.094355 18.633699 -29.681731 -0.394442 0.555140 0.804473 0.101786 -0.000906 -4.114893 -11.904634 3.751086 16.284207 31.590977 -19.152001 -3.810784 4.532663 -50.024469 6.068635 -0.047075 4.813899 -45.237825 -32.497101 0.108381 0.103825 -0.046711 31.239929 -13.715163 10.714981 -21.103468 3.971277 2.963134 30.256553 -6.344443 6.448431 -32.343302 14.390251 8.157743 20.872416 11.244833 8.185622 -18.722467 18.085335 5.094262 18.635544 29.682657 0.393687 0.555241 -0.804615 -0.101806 -12.298389 -0.000003 0.000031 -8.168192 -1.207835 3.958193 3.441663 -0.191527 4.130221 9.903038 -0.473367 -5.350494 7.728008 -0.203193 -5.342781 3.005443 -0.174493 -9.484460 2.235164 -0.336594 -9.447579 3.218960 -0.454605 7.196528 2.529277 0.390782 7.076526 2.504828 0.702950 7.052489 -31.844138 -12.092164 9.646292 -2.249840 -0.052910 -0.518079 -31.240776 -19.435853 -9.151343 -2.318588 -4.298927 -0.446779 8.087308 0.872406 0.413562 17.133842 6.636309 3.687457 20.253548 6.370508 -9.434381 -1.696117 7.323613 -8.103870 -14.950131 8.248241 -16.902946 -4.670666 0.087055 1.077311 -46.493951 16.897483 11.505244 -2.318629 4.298934 0.446767 8.087295 -0.872367 -0.413613 17.133816 -6.636216 -3.687518 20.253551 -6.370391 9.434271 -1.696096 -7.323587 8.103838 
0.335104 -0.000000 49.752846 -0.000001 0.536826 0.000044 -8.842958 -0.000092 0.000014 11.183941 0.000007 0.000018 2.341026 -0.000001 0.000002 4.037878 -0.000001 0.000006 -2.904690 0.000003 -0.000008 -5.600114 0.000002 -0.000003 -9.930158 0.000004 -0.000015 13.412520 -0.000016 -0.000019 -11.179292 -0.000057 0.000053 -0.000005 -0.000000 -0.000000 0.000021 0.000000 -0.000000 -0.000005 0.000007 -0.000015 0.000062 -0.000040 0.000011 0.000004 -0.000003 -0.000005 0.000012 0.000015 0.000003 -0.000001 0.000000 -0.000007 0.000065 0.000041 -0.000017 0.000001 -0.000002 -0.000000 0.000006 -0.000017 0.000006 -0.000001 0.000000 0.000000 -0.000851 4.108242 11.888968 33.000322 -17.809734 -25.993721 -35.728842 8.199392 -7.297802 -58.703468 -15.716433 -15.101179 4.793693 45.297927 32.674659 0.108684 -0.104105 0.046846 31.254187 13.716943 -10.716940 -21.104320 -3.971459 -2.963112 30.315972 6.352096 -6.480365 -32.400112 -14.409780 -8.178048 20.900642 -11.257555 -8.241912 -18.714025 -18.078331 -5.090664 18.662459 -29.696409 -0.384686 0.556744 0.806804 0.102069 -0.000908 -4.114893 -11.904634 6.171392 18.135033 30.074310 -24.455530 -5.123250 5.550886 -47.102689 6.474763 -0.550113 4.813893 -45.237828 -32.497115 0.108398 0.103814 -0.046710 31.239936 -13.715166 10.714982 -21.103481 3.971279 2.963142 30.256573 -6.344449 6.448432 -32.343306 14.390251 8.157746 20.872416 11.244831 8.185627 -18.722465 18.085339 5.094262 18.635558 29.682657 0.393680 0.555234 -0.804620 -0.101800 -11.766522 -0.000003 0.000031 -7.637080 -1.183564 3.966272 3.327831 -0.202198 4.129730 9.545282 -0.429178 -5.352243 7.368341 -0.178714 -5.344095 2.859081 -0.150040 -9.484886 2.208933 -0.286832 -9.449128 3.186024 -0.428540 7.190987 2.529278 0.390782 7.076520 2.504827 0.702950 7.052489 -35.792848 -13.043301 7.582286 4.859983 0.183513 1.110139 -34.662155 -19.128659 -9.725692 -2.318601 -4.298936 -0.446769 8.087302 0.872398 0.413572 17.133840 6.636298 3.687471 20.253550 6.370507 -9.434363 -1.696110 7.323607 -8.103856 -17.583868 9.238598 -15.646980 1.030198 -0.031012 -0.236497 -49.356433 16.455582 11.507119 -2.290866 4.298010 0.448539 8.115224 -0.872977 -0.411712 17.161953 -6.636504 -3.685530 20.281676 -6.370557 9.436273 -1.667962 -7.324502 8.105634 
0.522454 -0.000000 48.625137 -0.000002 0.844840 0.000048 -8.842958 -0.000092 0.000014 11.297719 0.000007 0.000018 2.454805 -0.000001 0.000002 3.585560 0.000000 0.000007 -3.308311 0.000004 -0.000007 -4.905229 0.000002 -0.000004 -8.300031 0.000001 -0.000011 12.960256 -0.000008 -0.000025 -10.960126 -0.000057 0.000053 -0.000004 -0.000000 0.000000 0.000021 -0.000000 0.000000 -0.000005 0.000007 -0.000017 0.000063 -0.000040 0.000014 -0.000002 0.000001 0.000003 0.000006 0.000007 -0.000000 0.000001 -0.000000 -0.000000 0.000064 0.000040 -0.000018 0.000000 -0.000002 -0.000003 0.000003 -0.000010 0.000005 -0.000000 -0.000000 -0.000000 -0.000821 4.096259 11.859333 36.442300 -19.596513 -24.432292 -41.158255 9.788785 -7.918103 -56.275301 -16.914682 -15.375162 4.754023 45.411394 33.011756 0.109237 -0.104636 0.047083 31.281249 13.720367 -10.720197 -21.105903 -3.971704 -2.963391 30.428486 6.366528 -6.540358 -32.507633 -14.446456 -8.216917 20.954136 -11.281715 -8.348032 -18.698116 -18.064981 -5.084125 18.713501 -29.722415 -0.367364 0.559589 0.810937 0.102573 -0.000906 -4.114893 -11.904633 8.457255 19.792975 28.624742 -29.232025 -6.383746 6.363598 -44.456786 6.790116 -1.120779 4.813891 -45.237828 -32.497118 0.108381 0.103828 -0.046714 31.239923 -13.715163 10.714981 -21.103480 3.971285 2.963138 30.256560 -6.344446 6.448430 -32.343299 14.390254 8.157742 20.872418 11.244832 8.185624 -18.722469 18.085333 5.094265 18.635548 29.682663 0.393668 0.555250 -0.804610 -0.101808 -11.227402 -0.000003 0.000032 -7.098730 -1.158887 3.974244 3.212441 -0.213018 4.129261 9.182657 -0.384377 -5.353727 7.003776 -0.153894 -5.345277 2.710721 -0.125254 -9.485236 2.182347 -0.236390 -9.450660 3.152638 -0.402118 7.185385 2.529278 0.390782 7.076521 2.504826 0.702950 7.052489 -39.412954 -13.816516 5.614234 11.228863 0.565513 2.535687 -37.685719 -18.800253 -10.212597 -2.318600 -4.298922 -0.446777 8.087286 0.872412 0.413565 17.133820 6.636303 3.687457 20.253528 6.370510 -9.434377 -1.696122 7.323611 -8.103862 -19.926630 10.057098 -14.428915 6.110326 -0.245910 -1.393063 -51.836447 16.076460 11.385712 -2.318626 4.298947 0.446766 8.087291 -0.872363 -0.413613 17.133813 -6.636216 -3.687525 20.253548 -6.370387 9.434276 -1.696106 -7.323586 8.103837 
